<?xml version="1.0" encoding="utf-8"?>
<!-- Generator: Adobe Illustrator 23.0.1, SVG Export Plug-In . SVG Version: 6.00 Build 0)  -->
<svg version="1.1" id="Lager_1" xmlns="http://www.w3.org/2000/svg" xmlns:xlink="http://www.w3.org/1999/xlink" x="0px" y="0px"
	 viewBox="0 0 200 200" style="enable-background:new 0 0 200 200;" xml:space="preserve">
<style type="text/css">
	.st0{display:none;fill:none;stroke:#1D1D1B;stroke-width:0.25;stroke-miterlimit:10;}
	.st1{fill:#464646;}
	.st2{fill:#FFFFFF;}
</style>
<line class="st0" x1="100" y1="0" x2="100" y2="200"/>
<line class="st0" x1="0" y1="100" x2="200" y2="100"/>
<circle class="st1" cx="100" cy="100" r="100"/>
<path class="st2" d="M136.59,73.07c-0.07-11.64-3.58-20.79-10.42-27.19c-11.02-10.31-26.67-9.7-28-9.63l-57.73,0.29l0.38,76.52
	l4.45-0.02l-0.36-72.07l53.34-0.26l0.13,0c0.15-0.01,14.87-0.81,24.75,8.44c5.93,5.54,8.96,13.63,9.01,24.04l0.01,0.17
	c0.01,0.13,0.71,9.5-2.82,18.71c1.51-6.33,1.18-11.73,1.12-12.52c-0.06-9.76-3-17.42-8.73-22.78c-9.23-8.63-22.34-8.13-23.46-8.07
	L49.9,48.93l0.32,64.11l3.73-0.02l-0.3-60.38l44.69-0.22l0.11,0c0.12-0.01,12.46-0.68,20.74,7.07c4.97,4.64,7.51,11.42,7.55,20.14
	l0.01,0.15c0.01,0.15,1.13,15.05-7.5,24c-2.23,2.31-4.96,4.02-8.12,5.16c-3.68,0.98-7.82,1.37-12.4,1.16l-0.21,4.45
	c0.99,0.05,1.96,0.07,2.91,0.06c10.55-0.05,18.95-3.25,25-9.53C137.83,93.21,136.72,74.72,136.59,73.07z"/>
<path class="st2" d="M63.28,127.06c0.12,11.64,3.65,20.78,10.52,27.15c11.06,10.27,26.7,9.61,28.03,9.53l57.73-0.49l-0.65-76.52
	l-4.45,0.04l0.61,72.07l-53.34,0.45l-0.13,0c-0.15,0.01-14.86,0.86-24.78-8.35c-5.95-5.52-9.01-13.6-9.1-24.01l-0.01-0.17
	c-0.01-0.13-0.75-9.5,2.75-18.72c-1.49,6.34-1.14,11.74-1.08,12.53c0.1,9.75,3.06,17.41,8.81,22.75c9.26,8.6,22.37,8.05,23.49,7.99
	l48.37-0.41l-0.54-64.11l-3.73,0.03l0.51,60.38l-44.69,0.38l-0.11,0c-0.12,0.01-12.45,0.72-20.76-7c-4.98-4.63-7.55-11.4-7.62-20.12
	l-0.01-0.15c-0.01-0.15-1.19-15.05,7.42-24.03c2.22-2.32,4.95-4.04,8.11-5.19c3.68-1,7.81-1.4,12.39-1.2l0.19-4.45
	c-0.99-0.04-1.96-0.06-2.91-0.05c-10.55,0.09-18.94,3.32-24.97,9.62C61.96,106.93,63.15,125.41,63.28,127.06z"/>
</svg>
