<?xml version="1.0" encoding="utf-8"?>
<!-- Generator: Adobe Illustrator 23.0.1, SVG Export Plug-In . SVG Version: 6.00 Build 0)  -->
<svg version="1.1" id="Lager_1" xmlns="http://www.w3.org/2000/svg" xmlns:xlink="http://www.w3.org/1999/xlink" x="0px" y="0px"
	 viewBox="0 0 178.93 127.5" style="enable-background:new 0 0 178.93 127.5;" xml:space="preserve">
<style type="text/css">
	.st0{display:none;fill:none;stroke:#1D1D1B;stroke-width:0.25;stroke-miterlimit:10;}
	.st1{fill:#FFFFFF;}
	.st2{display:none;fill:#FFFFFF;}
</style>
<line class="st0" x1="89.68" y1="-36.25" x2="89.68" y2="163.75"/>
<line class="st0" x1="-10.32" y1="63.75" x2="189.68" y2="63.75"/>
<path class="st1" d="M156.3,59.89c-0.12-18.93-5.82-33.8-16.94-44.2C121.45-1.06,96.01-0.09,93.85,0.03L0,0.49l0.62,124.39
	l7.23-0.04L7.27,7.69l86.71-0.43l0.21-0.01c0.24-0.02,24.17-1.31,40.24,13.72c9.64,9.01,14.56,22.16,14.65,39.08l0.01,0.28
	c0.02,0.21,1.16,15.44-4.58,30.42c2.46-10.29,1.92-19.07,1.83-20.36c-0.1-15.86-4.88-28.32-14.19-37.03
	C117.13,19.34,95.82,20.16,94,20.25l-78.63,0.39l0.52,104.22l6.06-0.03l-0.49-98.16l72.64-0.36l0.17-0.01
	c0.2-0.01,20.25-1.1,33.71,11.49c8.07,7.55,12.2,18.57,12.27,32.75l0.01,0.24c0.02,0.24,1.84,24.47-12.2,39.01
	c-3.63,3.76-8.06,6.54-13.21,8.39c-5.99,1.6-12.71,2.23-20.15,1.88l-0.34,7.23c1.61,0.08,3.19,0.11,4.74,0.1
	c17.15-0.08,30.81-5.29,40.64-15.5C158.33,92.63,156.51,62.58,156.3,59.89z"/>
<path class="st2" d="M22.79,67.81c0.19,18.94,5.94,33.81,17.11,44.18c17.99,16.7,43.45,15.64,45.61,15.51l93.93-0.8l-1.06-124.5
	l-7.24,0.06l1,117.26l-86.78,0.74l-0.21,0.01c-0.24,0.02-24.18,1.4-40.32-13.59c-9.68-8.99-14.66-22.13-14.8-39.07l-0.01-0.28
	c-0.02-0.21-1.22-15.45,4.48-30.46c-2.42,10.31-1.86,19.09-1.75,20.38c0.16,15.87,4.98,28.32,14.34,37.01
	c15.07,13.99,36.4,13.1,38.21,13l78.7-0.67L163.09,2.27l-6.07,0.05l0.83,98.24l-72.71,0.62l-0.17,0.01
	c-0.2,0.01-20.26,1.17-33.78-11.38c-8.11-7.53-12.28-18.54-12.4-32.73l-0.01-0.24c-0.02-0.24-1.93-24.49,12.07-39.09
	c3.62-3.78,8.05-6.57,13.19-8.44c5.99-1.62,12.71-2.28,20.16-1.95l0.32-7.24c-1.61-0.07-3.19-0.1-4.74-0.09
	c-17.16,0.15-30.82,5.4-40.62,15.66C20.64,35.04,22.57,65.11,22.79,67.81z"/>
</svg>
