<?xml version="1.0" encoding="utf-8"?>
<!-- Generator: Adobe Illustrator 23.0.1, SVG Export Plug-In . SVG Version: 6.00 Build 0)  -->
<svg version="1.1" id="Lager_1" xmlns="http://www.w3.org/2000/svg" xmlns:xlink="http://www.w3.org/1999/xlink" x="0px" y="0px"
	 viewBox="0 0 200 200" style="enable-background:new 0 0 200 200;" xml:space="preserve">
<style type="text/css">
	.st0{display:none;fill:none;stroke:#1D1D1B;stroke-width:0.25;stroke-miterlimit:10;}
	.st1{fill:#444444;}
	.st2{display:none;}
	.st3{display:inline;fill:#444444;}
</style>
<line class="st0" x1="100" y1="0" x2="100" y2="200"/>
<line class="st0" x1="0" y1="100" x2="200" y2="100"/>
<path class="st1" d="M106.74,126.46c0,34.38-11.97,34.38-22.54,34.38c-8.2,0-13.06-1.61-15.22-2.57l-11.46-5.09l-7.12,39.45
	l7.79,2.84c7.46,2.71,18.65,4.54,27.84,4.54c28.99,0,63.54-12.39,63.54-71.44V0h-42.85V126.46z"/>
<g class="st2">
	<polygon class="st3" points="202.06,113.92 270.77,113.92 270.77,75.28 202.06,75.28 202.06,38.64 274.98,38.64 274.98,0 159.21,0 
		159.21,197.11 278.93,197.11 278.93,158.47 202.06,158.47 	"/>
	<path class="st3" d="M350.31,126.46c0,34.38-11.97,34.38-22.54,34.38c-8.21,0-13.06-1.61-15.22-2.57l-11.46-5.1l-7.12,39.46
		l7.8,2.84c7.46,2.71,18.65,4.54,27.84,4.54c28.99,0,63.54-12.39,63.54-71.44V0h-42.85V126.46z"/>
	<path class="st3" d="M523.81,0h-41.45l-67.27,197.11h44.86l18.17-55.8h48.71l18.95,55.8h45.29L523.81,0z M489.43,103.72
		l12.95-38.27c0.02,0.07,0.05,0.14,0.07,0.21l12.95,38.06H489.43z"/>
</g>
</svg>
