<svg version="1.2" xmlns="http://www.w3.org/2000/svg" viewBox="0 0 137 45" width="137" height="45">
	<title>logo-svg</title>
	<style>
		.s0 { fill: #303030 } 
		.s1 { fill: #ffffff } 
		.s2 { fill: #464646 } 
	</style>
	<path id="Layer" class="s0" d="m22.9 44.5c-12.1 0-21.9-9.8-21.9-21.9 0-12.2 9.8-22 21.9-22 12.1 0 21.8 9.8 21.8 22 0 12.1-9.7 21.9-21.8 21.9z"/>
	<path id="Layer" class="s1" d="m30.9 16.6c0-2.5-0.8-4.5-2.3-6-2.4-2.2-5.8-2.1-6.1-2.1l-12.6 0.1v16.8h1l-0.1-15.8 11.7-0.1c0.1 0 3.3-0.2 5.4 1.9q2 1.8 2 5.3c0 0 0.2 2.1-0.6 4.1 0.3-1.4 0.3-2.6 0.2-2.8q0-3.2-1.9-5c-2-1.9-4.8-1.7-5.1-1.7h-10.6l0.1 14.1h0.8l-0.1-13.3h9.8c0.1 0 2.8-0.2 4.6 1.5q1.6 1.6 1.6 4.5c0 0 0.3 3.3-1.6 5.3q-0.7 0.7-1.8 1.1-1.2 0.3-2.7 0.3v0.9q0.3 0.1 0.6 0.1 3.5-0.1 5.5-2.1c2.5-2.6 2.2-6.7 2.2-7.1z"/>
	<path id="Layer" class="s1" d="m14.9 28.5q0 3.9 2.3 6c2.4 2.2 5.8 2.1 6.1 2.1l12.6-0.1-0.1-16.9h-1l0.1 15.9-11.6 0.1h-0.1c0 0-3.2 0.2-5.4-1.8q-1.9-1.9-2-5.3v-0.1c0 0-0.1-2.1 0.6-4.1-0.3 1.4-0.2 2.6-0.2 2.8q0 3.2 1.9 5c2 1.9 4.9 1.7 5.2 1.7l10.5-0.1-0.1-14.1h-0.8l0.1 13.3-9.8 0.1c0 0-2.7 0.2-4.5-1.5q-1.7-1.6-1.7-4.4v-0.1c0 0-0.3-3.3 1.6-5.3q0.8-0.7 1.8-1.1 1.2-0.3 2.7-0.3l0.1-1q-0.4 0-0.7 0-3.5 0.1-5.4 2.2c-2.5 2.6-2.3 6.6-2.2 7z"/>
	<g id="Layer">
		<path id="Layer" class="s0" d="m61.6 26.4c0 5-1.7 5-3.2 5-1.1 0-1.8-0.3-2.1-0.4l-1.7-0.7-1 5.6 1.1 0.4c1.1 0.4 2.7 0.7 4 0.7 4.1 0 9-1.8 9-10.3v-18.3h-6.1z"/>
		<path id="Layer" class="s0" d="m79.3 24.7h9.8v-5.6h-9.8v-5.2h10.4v-5.5h-16.4v28.1h17v-5.5h-11z"/>
		<path id="Layer" class="s0" d="m100.4 26.4c0 5-1.7 5-3.2 5-1.2 0-1.9-0.3-2.2-0.4l-1.6-0.7-1 5.6 1.1 0.4c1.1 0.4 2.7 0.7 4 0.7 4.1 0 9-1.8 9-10.3v-18.3h-6.1z"/>
		<path id="Layer" fill-rule="evenodd" class="s0" d="m134.6 36.5h-6.4l-2.7-7.9h-7l-2.5 7.9h-6.4l9.6-28.1h5.8zm-10.7-13.4l-1.8-5.4q0 0 0 0l-1.9 5.4z"/>
	</g>
	<g id="Layer">
		<path id="Layer" class="s2" d="m133.6 9.7c0.6 0.6 1.1 1 1.7 1 0.5 0 1-0.3 1-1 0-0.3-0.1-0.6-0.4-0.9v-0.1l-0.6 0.3 0.1 0.1c0.1 0.1 0.3 0.3 0.3 0.5q0 0.5-0.5 0.5c-0.3 0-0.7-0.3-1.4-1.1l-0.3-0.3h-0.5v2.1h0.6z"/>
		<path id="Layer" class="s2" d="m136 11.6l-0.6 0.2 0.1 0.2c0.1 0.1 0.2 0.3 0.2 0.5q0 0.4-0.3 0.4c-0.3 0-0.4-0.3-0.4-0.5v-0.4h-0.6v0.4c0 0.1 0 0.6-0.4 0.6 0 0-0.2 0-0.3-0.1q-0.1-0.2-0.1-0.5c0-0.2 0.1-0.4 0.1-0.5l0.1-0.2-0.5-0.2-0.1 0.1c-0.1 0.2-0.2 0.5-0.2 0.9 0 0.8 0.5 1.2 1 1.2 0.3 0 0.6-0.2 0.8-0.5q0.2 0.3 0.6 0.4c0.5 0 0.9-0.4 0.9-1 0-0.4-0.2-0.7-0.3-0.9z"/>
		<path id="Layer" fill-rule="evenodd" class="s2" d="m134.6 16.7c-0.9 0-1.6-0.5-1.6-1.1 0-0.7 0.7-1.2 1.6-1.2 0.9 0 1.7 0.5 1.7 1.2 0 0.6-0.8 1.1-1.7 1.1zm1.1-1.1c0-0.3-0.5-0.5-1.1-0.5-0.6 0-1 0.2-1 0.5 0 0.2 0.4 0.4 1 0.4 0.6 0 1.1-0.2 1.1-0.4z"/>
		<path id="Layer" fill-rule="evenodd" class="s2" d="m136.2 18.9q0.1 0.2 0.1 0.3v0.1h-0.6v-0.1q0-0.2-0.1-0.3-0.1-0.5-0.5-0.8 0.1 0.2 0.1 0.5c0 0.6-0.4 1-1.1 1-0.5 0-1.1-0.4-1.1-1.1 0-0.7 0.5-1.2 1.4-1.2 0.5 0 1 0.2 1.4 0.5q0.4 0.4 0.4 1.1zm-1.6-0.4c0-0.2-0.1-0.4-0.2-0.5q-0.1 0-0.1 0c-0.2 0-0.7 0-0.7 0.5 0 0.2 0.2 0.4 0.5 0.4 0.4 0 0.6-0.2 0.5-0.4z"/>
	</g>
</svg>