<svg version="1.2" xmlns="http://www.w3.org/2000/svg" viewBox="0 0 210 69" width="210" height="69">
	<title>logo-svg</title>
	<style>
		.s0 { fill: #303030 } 
		.s1 { fill: #ffffff } 
		.s2 { fill: #464646 } 
	</style>
	<path id="Layer" class="s0" d="m35.1 68.3c-18.6 0-33.5-15.1-33.5-33.7 0-18.7 14.9-33.7 33.5-33.7 18.5 0 33.5 15 33.5 33.7 0 18.6-15 33.7-33.5 33.7z"/>
	<path id="Layer" class="s1" d="m47.3 25.5c0-3.9-1.2-7-3.5-9.2-3.7-3.4-8.9-3.2-9.3-3.2l-19.4 0.1 0.1 25.8h1.5l-0.1-24.3 17.9-0.1c0.1 0 5-0.3 8.3 2.8 2 1.9 3 4.6 3 8.1v0.1c0 0 0.3 3.2-0.9 6.3 0.5-2.1 0.4-4 0.4-4.2 0-3.3-1-5.9-2.9-7.7-3.1-2.9-7.5-2.7-7.9-2.7l-16.2 0.1 0.1 21.6h1.2l-0.1-20.4 15-0.1h0.1c0 0 4.1-0.2 6.9 2.4q2.5 2.4 2.5 6.8c0 0.1 0.4 5.1-2.5 8.1q-1.1 1.2-2.7 1.8-1.9 0.5-4.2 0.4v1.5q0.5 0 0.9 0c3.6 0 6.4-1.1 8.4-3.2 3.9-4 3.5-10.2 3.4-10.8z"/>
	<path id="Layer" class="s1" d="m22.8 43.7c0 3.9 1.2 7 3.5 9.2 3.7 3.4 8.9 3.2 9.4 3.2l19.3-0.2-0.2-25.8h-1.5l0.2 24.3-17.8 0.2h-0.1c0 0-5 0.3-8.3-2.8-2-1.9-3-4.6-3-8.1v-0.1c0 0-0.3-3.2 0.9-6.3-0.5 2.1-0.4 3.9-0.4 4.2 0.1 3.3 1.1 5.9 3 7.7 3.1 2.9 7.5 2.7 7.8 2.7l16.2-0.2-0.1-21.6h-1.3l0.2 20.4-15 0.1c-0.1 0-4.2 0.3-7-2.3q-2.5-2.4-2.5-6.8v-0.1c0 0-0.4-5 2.5-8.1q1.1-1.1 2.7-1.7 1.8-0.5 4.1-0.4l0.1-1.5q-0.5-0.1-1 0c-3.5 0-6.3 1.1-8.4 3.2-3.8 4-3.4 10.2-3.3 10.8z"/>
	<g id="Layer">
		<path id="Layer" class="s0" d="m94.5 40.6c0 7.5-2.6 7.5-4.9 7.5-1.8 0-2.9-0.4-3.4-0.6l-2.4-1.1-1.6 8.7 1.7 0.6c1.6 0.6 4.1 1 6.1 1 6.3 0 13.8-2.8 13.8-15.7v-28.1h-9.3z"/>
		<path id="Layer" class="s0" d="m121.6 37.8h15v-8.5h-15v-8h15.9v-8.4h-25.2v43.1h26.1v-8.4h-16.8z"/>
		<path id="Layer" class="s0" d="m153.9 40.6c0 7.5-2.6 7.5-4.9 7.5-1.8 0-2.9-0.4-3.3-0.6l-2.5-1.1-1.6 8.7 1.7 0.6c1.7 0.6 4.1 1 6.1 1 6.3 0 13.8-2.8 13.8-15.7v-28.1h-9.3z"/>
		<path id="Layer" fill-rule="evenodd" class="s0" d="m206.3 56h-9.9l-4.1-12.2h-10.6l-3.9 12.2h-9.8l14.6-43.1h9.1zm-16.5-20.5l-2.8-8.3q0-0.1 0-0.1l-2.8 8.4z"/>
	</g>
	<g id="Layer">
		<path id="Layer" class="s2" d="m204.8 14.9c0.9 0.9 1.7 1.6 2.6 1.6 0.7 0 1.5-0.5 1.5-1.6 0-0.5-0.2-1-0.5-1.4l-0.1-0.1-0.9 0.3 0.2 0.3c0.2 0.1 0.4 0.4 0.4 0.8q-0.1 0.6-0.7 0.6c-0.6 0-1.1-0.4-2.2-1.6l-0.5-0.5h-0.7v3.3h0.9z"/>
		<path id="Layer" class="s2" d="m208.4 17.8l-0.9 0.4 0.2 0.2c0.1 0.2 0.3 0.5 0.3 0.8q0 0.5-0.5 0.5c-0.4 0-0.5-0.4-0.5-0.8v-0.5h-0.9v0.5c0 0.2-0.1 1-0.7 1 0 0-0.3 0-0.4-0.2q-0.2-0.2-0.2-0.6c0-0.4 0.1-0.8 0.2-0.9l0.1-0.2-0.8-0.3-0.1 0.1c-0.2 0.2-0.4 0.7-0.4 1.3 0 1.3 0.9 1.8 1.6 1.8 0.5 0 0.9-0.2 1.2-0.7q0.4 0.6 1 0.6c0.6 0 1.3-0.5 1.3-1.5 0-0.6-0.2-1.1-0.4-1.3z"/>
		<path id="Layer" fill-rule="evenodd" class="s2" d="m206.4 25.6c-1.4 0-2.6-0.8-2.6-1.8 0-0.9 1.2-1.7 2.6-1.7 1.3 0 2.5 0.8 2.5 1.7 0 1-1.2 1.8-2.5 1.8zm1.6-1.8c0-0.3-0.7-0.7-1.6-0.7-0.9 0-1.7 0.4-1.7 0.7 0 0.4 0.8 0.7 1.7 0.7 0.9 0 1.6-0.3 1.6-0.7z"/>
		<path id="Layer" fill-rule="evenodd" class="s2" d="m208.8 28.9q0.1 0.3 0.1 0.5v0.2h-0.9v-0.2q0-0.2-0.1-0.4c-0.1-0.6-0.3-1-0.8-1.2q0.2 0.3 0.2 0.7c0 0.9-0.7 1.5-1.7 1.5-0.8 0-1.8-0.6-1.8-1.7 0-1 0.9-1.8 2.2-1.8 0.8 0 1.6 0.3 2.1 0.9 0.4 0.4 0.7 0.9 0.7 1.5zm-2.4-0.6c0-0.3-0.2-0.6-0.4-0.7q-0.1 0-0.2 0c-0.3 0-1.1 0-1.1 0.7 0 0.4 0.4 0.7 0.9 0.7 0.5 0 0.8-0.3 0.8-0.7z"/>
	</g>
</svg>