<svg version="1.2" xmlns="http://www.w3.org/2000/svg" viewBox="0 0 190 62" width="190" height="62">
	<title>logo-svg</title>
	<style>
		.s0 { fill: #303030 } 
		.s1 { fill: #ffffff } 
		.s2 { fill: #464646 } 
	</style>
	<path id="Layer" class="s0" d="m31.7 61.4c-16.7 0-30.3-13.6-30.3-30.3 0-16.8 13.6-30.3 30.3-30.3 16.8 0 30.3 13.5 30.3 30.3 0 16.7-13.5 30.3-30.3 30.3z"/>
	<path id="Layer" class="s1" d="m42.8 22.9c0-3.5-1.1-6.3-3.1-8.2-3.4-3.2-8.1-3-8.5-3l-17.5 0.1 0.1 23.2h1.3l-0.1-21.8 16.2-0.1c0.1 0 4.6-0.3 7.6 2.6 1.8 1.6 2.7 4.1 2.7 7.2v0.1c0 0 0.2 2.9-0.9 5.7 0.5-2 0.4-3.6 0.4-3.8 0-3-0.9-5.3-2.7-6.9-2.8-2.6-6.7-2.5-7.1-2.5l-14.7 0.1 0.1 19.4h1.2l-0.1-18.3 13.5-0.1h0.1c0 0 3.7-0.2 6.3 2.2q2.2 2.1 2.2 6.1c0 0.1 0.4 4.6-2.2 7.3q-1.1 1-2.5 1.6-1.7 0.4-3.8 0.3v1.4q0.4 0 0.9 0c3.2 0 5.7-1 7.5-2.9 3.5-3.6 3.2-9.2 3.1-9.7z"/>
	<path id="Layer" class="s1" d="m20.6 39.3c0 3.5 1.1 6.3 3.2 8.2 3.3 3.1 8.1 2.9 8.5 2.9l17.5-0.2-0.2-23.2-1.4 0.1 0.2 21.8-16.1 0.1h-0.1c0 0-4.5 0.3-7.5-2.5-1.8-1.7-2.7-4.1-2.8-7.3 0-0.1-0.2-2.9 0.9-5.7-0.5 1.9-0.4 3.6-0.3 3.8 0 3 0.9 5.3 2.6 6.9 2.8 2.6 6.8 2.4 7.1 2.4l14.7-0.1-0.2-19.4h-1.1l0.2 18.3-13.6 0.1c0 0-3.8 0.2-6.3-2.1q-2.3-2.2-2.3-6.1v-0.1c0 0-0.4-4.5 2.2-7.3q1-1 2.5-1.5 1.7-0.5 3.7-0.4l0.1-1.3q-0.4-0.1-0.9-0.1c-3.2 0.1-5.7 1.1-7.5 3-3.5 3.6-3.1 9.2-3.1 9.7z"/>
	<g id="Layer">
		<path id="Layer" class="s0" d="m85.5 36.4c0 6.8-2.4 6.8-4.5 6.8-1.6 0-2.5-0.3-3-0.5l-2.2-1-1.4 7.8 1.5 0.5c1.5 0.6 3.7 0.9 5.5 0.9 5.7 0 12.5-2.4 12.5-14v-25.4h-8.4z"/>
		<path id="Layer" class="s0" d="m110 34h13.6v-7.6h-13.6v-7.2h14.4v-7.7h-22.8v38.8h23.6v-7.6h-15.2z"/>
		<path id="Layer" class="s0" d="m139.2 36.4c0 6.8-2.3 6.8-4.4 6.8-1.6 0-2.6-0.3-3-0.5l-2.3-1-1.4 7.8 1.6 0.5c1.4 0.6 3.6 0.9 5.5 0.9 5.7 0 12.5-2.4 12.5-14v-25.4h-8.5z"/>
		<path id="Layer" fill-rule="evenodd" class="s0" d="m186.6 50.3h-8.9l-3.7-10.9h-9.6l-3.6 10.9h-8.8l13.2-38.8h8.2zm-14.9-18.3l-2.5-7.5q0 0 0-0.1l-2.6 7.6z"/>
	</g>
	<g id="Layer">
		<path id="Layer" class="s2" d="m185.3 13.4c0.8 0.8 1.5 1.4 2.3 1.4 0.7 0 1.4-0.4 1.4-1.4 0-0.5-0.2-0.9-0.5-1.3l-0.1-0.1-0.7 0.4 0.1 0.1c0.2 0.2 0.3 0.5 0.3 0.8q0 0.6-0.6 0.6c-0.5 0-1-0.4-1.9-1.5l-0.5-0.5h-0.6v3h0.8z"/>
		<path id="Layer" class="s2" d="m188.5 16l-0.7 0.3 0.1 0.2c0.1 0.2 0.3 0.4 0.3 0.7q0 0.5-0.5 0.5c-0.3 0-0.4-0.4-0.4-0.7v-0.5h-0.8v0.5c0 0.2-0.1 0.9-0.7 0.9 0 0-0.2 0-0.4-0.2q-0.1-0.2-0.1-0.5c0-0.4 0.1-0.7 0.2-0.8l0.1-0.2-0.8-0.3-0.1 0.1c-0.1 0.2-0.3 0.6-0.3 1.2 0 1.1 0.8 1.6 1.4 1.6 0.5 0 0.9-0.2 1.1-0.6q0.4 0.5 0.9 0.5c0.6 0 1.2-0.4 1.2-1.4 0-0.5-0.2-0.9-0.4-1.2z"/>
		<path id="Layer" fill-rule="evenodd" class="s2" d="m186.7 23c-1.3 0-2.3-0.7-2.3-1.6 0-0.8 1-1.5 2.3-1.5 1.3 0 2.3 0.7 2.3 1.5 0 0.9-1 1.6-2.3 1.6zm1.5-1.6c0-0.3-0.7-0.6-1.5-0.6-0.8 0-1.5 0.3-1.5 0.6 0 0.4 0.7 0.7 1.5 0.7 0.8 0 1.5-0.3 1.5-0.7z"/>
		<path id="Layer" fill-rule="evenodd" class="s2" d="m188.9 26q0.1 0.3 0.1 0.4v0.2h-0.9v-0.2q0.1-0.2 0-0.4-0.1-0.7-0.7-1 0.1 0.3 0.1 0.6c0 0.8-0.6 1.4-1.5 1.4-0.7 0-1.6-0.5-1.6-1.5 0-1 0.8-1.7 1.9-1.7 0.8 0 1.5 0.3 2 0.8 0.4 0.3 0.6 0.8 0.6 1.4zm-2.2-0.6c0-0.2-0.1-0.5-0.4-0.6q0 0-0.1 0c-0.2 0-1 0-1 0.7 0 0.3 0.3 0.6 0.8 0.6 0.5 0 0.7-0.3 0.7-0.7z"/>
	</g>
</svg>