<svg version="1.2" xmlns="http://www.w3.org/2000/svg" viewBox="0 0 197 64" width="197" height="64">
	<title>logo-svg</title>
	<style>
		.s0 { fill: #303030 } 
		.s1 { fill: #ffffff } 
		.s2 { fill: #464646 } 
	</style>
	<path id="Layer" class="s0" d="m32.9 63.3c-17.4 0-31.4-13.9-31.4-31.2 0-17.3 14-31.3 31.4-31.3 17.4 0 31.4 14 31.4 31.3 0 17.3-14 31.2-31.4 31.2z"/>
	<path id="Layer" class="s1" d="m44.4 23.6c0-3.6-1.1-6.5-3.3-8.5-3.4-3.2-8.3-3-8.8-3l-18.1 0.1 0.1 23.9h1.4l-0.1-22.5 16.8-0.1c0 0 4.7-0.2 7.8 2.7 1.8 1.7 2.8 4.2 2.8 7.5 0 0.1 0.2 3-0.9 5.9 0.5-2 0.4-3.7 0.4-3.9 0-3.1-1-5.5-2.8-7.2-2.9-2.7-7-2.5-7.3-2.5l-15.2 0.1 0.1 20h1.1l-0.1-18.8 14.1-0.1c0.1 0 3.9-0.2 6.5 2.2q2.4 2.2 2.4 6.3c0 0.1 0.4 4.7-2.4 7.5q-1 1.1-2.5 1.7-1.7 0.4-3.9 0.3l-0.1 1.4q0.5 0 0.9 0c3.4 0 6-1 7.9-3 3.6-3.7 3.2-9.4 3.2-10z"/>
	<path id="Layer" class="s1" d="m21.4 40.5c0 3.7 1.1 6.5 3.3 8.5 3.4 3.2 8.4 3 8.8 3l18.1-0.1-0.2-24h-1.4l0.2 22.6-16.8 0.1c0 0-4.7 0.3-7.8-2.6-1.8-1.7-2.8-4.2-2.8-7.5v-0.1c0 0-0.3-2.9 0.8-5.8-0.4 2-0.3 3.7-0.3 3.9 0 3.1 1 5.4 2.8 7.1 2.9 2.7 7 2.5 7.3 2.5l15.2-0.1-0.1-20.1h-1.2l0.2 18.9-14.1 0.1c-0.1 0-3.9 0.3-6.6-2.1q-2.3-2.2-2.3-6.3v-0.1c-0.1 0-0.4-4.7 2.3-7.5q1-1.1 2.5-1.6 1.8-0.5 3.9-0.4l0.1-1.4q-0.5 0-0.9 0c-3.3 0-6 1-7.9 3-3.6 3.7-3.2 9.5-3.1 10z"/>
	<g id="Layer">
		<path id="Layer" class="s0" d="m88.6 37.6c0 7-2.4 7-4.6 7-1.7 0-2.7-0.3-3.1-0.5l-2.3-1.1-1.5 8.1 1.6 0.5c1.5 0.6 3.8 1 5.7 1 5.9 0 13-2.6 13-14.6v-26.1h-8.8z"/>
		<path id="Layer" class="s0" d="m114.1 35.1h14v-7.9h-14v-7.4h14.9v-7.9h-23.7v40.1h24.5v-7.9h-15.7z"/>
		<path id="Layer" class="s0" d="m144.4 37.6c0 7-2.5 7-4.6 7-1.7 0-2.7-0.3-3.1-0.5l-2.4-1.1-1.4 8.1 1.6 0.5c1.5 0.6 3.8 1 5.6 1 6 0 13-2.6 13-14.6v-26.1h-8.7z"/>
		<path id="Layer" fill-rule="evenodd" class="s0" d="m193.5 52h-9.2l-3.9-11.4h-9.9l-3.7 11.4h-9.2l13.7-40.1h8.5zm-15.4-19l-2.7-7.7q0 0 0 0l-2.6 7.7z"/>
	</g>
	<g id="Layer">
		<path id="Layer" class="s2" d="m192.2 13.8c0.8 0.9 1.5 1.5 2.3 1.5 0.7 0 1.4-0.5 1.4-1.5 0-0.5-0.1-0.9-0.4-1.3l-0.1-0.1-0.8 0.4 0.2 0.2c0.1 0.1 0.3 0.4 0.3 0.7q0 0.6-0.6 0.6c-0.6 0-1.1-0.4-2.1-1.5l-0.5-0.5h-0.6v3.1h0.9z"/>
		<path id="Layer" class="s2" d="m195.5 16.6l-0.8 0.2 0.1 0.3c0.2 0.1 0.3 0.4 0.3 0.7q0 0.5-0.4 0.5c-0.4 0-0.5-0.4-0.5-0.7v-0.5h-0.9v0.5c0 0.1 0 0.8-0.6 0.8-0.1 0-0.3 0-0.4-0.1q-0.2-0.2-0.2-0.6c0-0.4 0.1-0.7 0.2-0.8l0.1-0.2-0.8-0.3-0.1 0.1c-0.1 0.2-0.3 0.7-0.3 1.2 0 1.2 0.8 1.7 1.5 1.7 0.5 0 0.9-0.2 1.1-0.6q0.4 0.5 1 0.5c0.6 0 1.2-0.5 1.2-1.4 0-0.5-0.2-1-0.4-1.2z"/>
		<path id="Layer" fill-rule="evenodd" class="s2" d="m193.6 23.7c-1.3 0-2.4-0.7-2.4-1.6 0-0.9 1.1-1.6 2.4-1.6 1.3 0 2.3 0.7 2.3 1.6 0 0.9-1 1.6-2.3 1.6zm1.5-1.6c0-0.3-0.7-0.6-1.5-0.6-0.9 0-1.5 0.3-1.5 0.6 0 0.4 0.6 0.7 1.5 0.7 0.8 0 1.5-0.3 1.5-0.7z"/>
		<path id="Layer" fill-rule="evenodd" class="s2" d="m195.9 26.8q0.1 0.3 0 0.5v0.2h-0.8v-0.2q0-0.2-0.1-0.4-0.1-0.8-0.7-1.1 0.2 0.3 0.2 0.6c0 0.9-0.7 1.5-1.6 1.5-0.8 0-1.7-0.6-1.7-1.6 0-1 0.8-1.7 2-1.7 0.8 0 1.5 0.3 2 0.8 0.4 0.3 0.6 0.8 0.7 1.4zm-2.3-0.6c0-0.2-0.2-0.5-0.4-0.6q0 0-0.1 0c-0.3 0-1.1 0-1.1 0.7 0 0.4 0.4 0.6 0.9 0.6 0.4 0 0.7-0.3 0.7-0.7z"/>
	</g>
</svg>