<?xml version="1.0" encoding="utf-8"?>
<!-- Generator: Adobe Illustrator 23.0.1, SVG Export Plug-In . SVG Version: 6.00 Build 0)  -->
<svg version="1.1" id="Lager_1" xmlns="http://www.w3.org/2000/svg" xmlns:xlink="http://www.w3.org/1999/xlink" x="0px" y="0px"
	 viewBox="0 0 499.13 164.16" style="enable-background:new 0 0 499.13 164.16;" xml:space="preserve">
<style type="text/css">
	.st0{fill:#303030;}
	.st1{fill:#FFFFFF;}
	.st2{fill:#464646;}
</style>
<circle class="st0" cx="80.6" cy="83.11" r="80.23"/>
<path class="st1" d="M109.96,61.5c-0.06-9.34-2.87-16.68-8.36-21.81c-8.84-8.27-21.4-7.79-22.46-7.73l-46.32,0.23l0.3,61.4
	l3.57-0.02L36.4,35.74l42.8-0.21l0.1,0c0.12-0.01,11.93-0.65,19.86,6.77c4.76,4.45,7.19,10.94,7.23,19.29l0.01,0.14
	c0.01,0.1,0.57,7.62-2.26,15.01c1.21-5.08,0.95-9.41,0.9-10.05c-0.05-7.83-2.41-13.98-7-18.28c-7.41-6.93-17.93-6.52-18.82-6.48
	L40.4,42.13l0.25,51.44l2.99-0.01L43.41,45.1l35.85-0.18l0.09,0c0.1-0.01,9.99-0.54,16.64,5.67c3.98,3.73,6.02,9.16,6.06,16.16
	l0.01,0.12c0.01,0.12,0.91,12.08-6.02,19.26c-1.79,1.86-3.98,3.23-6.52,4.14c-2.95,0.79-6.27,1.1-9.95,0.93l-0.17,3.57
	c0.79,0.04,1.57,0.05,2.34,0.05c8.46-0.04,15.2-2.61,20.06-7.65C110.95,77.66,110.06,62.83,109.96,61.5z"/>
<path class="st1" d="M51.14,104.82c0.09,9.34,2.93,16.67,8.44,21.78c8.87,8.24,21.42,7.71,22.49,7.65l46.32-0.39l-0.52-61.39
	l-3.57,0.03l0.49,57.82l-42.79,0.36l-0.1,0c-0.12,0.01-11.93,0.69-19.88-6.7c-4.77-4.43-7.23-10.91-7.3-19.26l-0.01-0.14
	c-0.01-0.1-0.6-7.62,2.21-15.02c-1.19,5.09-0.92,9.42-0.87,10.05c0.08,7.83,2.46,13.97,7.07,18.25c7.43,6.9,17.95,6.46,18.84,6.41
	l38.81-0.33l-0.44-51.44l-2.99,0.03l0.41,48.44l-35.85,0.3l-0.09,0c-0.1,0.01-9.99,0.58-16.66-5.61c-4-3.71-6.05-9.14-6.11-16.14
	l-0.01-0.12c-0.01-0.12-0.95-12.07,5.95-19.28c1.79-1.86,3.97-3.24,6.5-4.16c2.95-0.8,6.27-1.13,9.94-0.96l0.16-3.57
	c-0.79-0.03-1.57-0.05-2.34-0.04c-8.46,0.07-15.2,2.66-20.03,7.72C50.08,88.66,51.03,103.49,51.14,104.82z"/>
<g>
	<path class="st0" d="M222.82,97.33c0,17.92-6.24,17.92-11.75,17.92c-4.28,0-6.81-0.84-7.93-1.34l-5.97-2.66l-3.71,20.57l4.06,1.48
		c3.89,1.42,9.73,2.37,14.52,2.37c15.11,0,33.13-6.46,33.13-37.25V31.4h-22.34V97.33z"/>
	<polygon class="st0" points="287.84,90.8 323.66,90.8 323.66,70.65 287.84,70.65 287.84,51.54 325.86,51.54 325.86,31.4 
		265.5,31.4 265.5,134.17 327.92,134.17 327.92,114.02 287.84,114.02 	"/>
	<path class="st0" d="M365.14,97.33c0,17.92-6.24,17.92-11.75,17.92c-4.28,0-6.81-0.84-7.93-1.34l-5.97-2.66l-3.71,20.57l4.07,1.48
		c3.89,1.42,9.73,2.37,14.52,2.37c15.11,0,33.13-6.46,33.13-37.25V31.4h-22.34V97.33z"/>
	<path class="st0" d="M455.59,31.4h-21.61l-35.07,102.76h23.39l9.47-29.09h25.4l9.88,29.09h23.61L455.59,31.4z M437.66,85.47
		l6.75-19.95c0.01,0.04,0.02,0.07,0.04,0.11l6.75,19.84H437.66z"/>
</g>
<g>
	<path class="st2" d="M487.13,36.26c2.15,2.21,3.85,3.77,6.05,3.77c1.8,0,3.62-1.16,3.62-3.76c0-1.24-0.43-2.43-1.2-3.35l-0.25-0.3
		l-1.98,0.9l0.43,0.52c0.36,0.44,0.8,1.13,0.8,1.94c0,1.06-0.53,1.6-1.58,1.6c-1.37-0.01-2.67-1.14-5.23-3.81l-1.23-1.31h-1.62v7.84
		h2.21V36.26z"/>
	<path class="st2" d="M495.65,43.29l-2.05,0.74l0.39,0.55c0.28,0.39,0.61,1.11,0.61,1.83c0,0.89-0.38,1.36-1.09,1.36
		c-0.95,0-1.29-1.12-1.29-1.87v-1.32h-2.11v1.32c0,0.37-0.08,2.23-1.63,2.25c-0.12-0.01-0.66-0.03-1.04-0.4
		c-0.33-0.33-0.5-0.83-0.5-1.5c0-0.91,0.39-1.77,0.59-2.09l0.34-0.54l-2.07-0.74l-0.22,0.33c-0.38,0.56-0.83,1.69-0.83,3.06
		c0,3.02,1.92,4.4,3.71,4.4c1.22,0,2.26-0.64,2.83-1.67c0.6,0.82,1.46,1.28,2.46,1.28c1.52,0,3.06-1.11,3.06-3.58
		c0-1.27-0.46-2.47-0.92-3.09L495.65,43.29z"/>
	<path class="st2" d="M490.73,53.44c-3.69,0.03-5.99,1.58-5.99,4.04c0,2.68,2.24,4.22,6.14,4.22c3.7,0,5.91-1.51,5.91-4.04
		C496.8,55.09,494.42,53.44,490.73,53.44z M490.72,55.91c2.38,0,3.92,0.66,3.92,1.67c0,1.44-2.39,1.65-3.82,1.65
		c-1.18,0-3.93-0.16-3.93-1.67C486.88,56.56,488.39,55.91,490.72,55.91z"/>
	<path class="st2" d="M494.97,65.92c-1.24-1.26-3.08-1.96-5.17-1.96c-3.03,0-5.06,1.72-5.06,4.27c0,2.65,2.2,4.08,4.27,4.08
		c2.34,0,3.98-1.53,3.98-3.73c0-0.58-0.12-1.13-0.34-1.62c0.99,0.57,1.65,1.54,1.85,2.8c0.07,0.38,0.07,0.69,0.07,0.99v0.51h2.17
		l0.03-0.48c0.02-0.3-0.01-0.64-0.08-1.15C496.52,68.17,495.92,66.88,494.97,65.92z M488.93,69.82c-1.25,0-2.06-0.62-2.06-1.57
		c0-1.66,1.98-1.82,2.57-1.83c0.17,0,0.31,0.05,0.39,0.09c0.62,0.32,1.04,0.97,1.04,1.63C490.87,69.19,490.14,69.82,488.93,69.82z"
		/>
</g>
</svg>
