<?xml version="1.0" encoding="utf-8"?>
<!-- Generator: Adobe Illustrator 23.0.1, SVG Export Plug-In . SVG Version: 6.00 Build 0)  -->
<svg version="1.1" id="Lager_1" xmlns="http://www.w3.org/2000/svg" xmlns:xlink="http://www.w3.org/1999/xlink" x="0px" y="0px"
	 viewBox="0 0 244.94 80" style="enable-background:new 0 0 244.94 80;" xml:space="preserve">
<style type="text/css">
	.st0{fill:#303030;}
	.st1{fill:#FFFFFF;}
	.st2{fill:#464646;}
</style>
<circle class="st0" cx="40.92" cy="40.09" r="39.09"/>
<path class="st1" d="M55.22,29.56c-0.03-4.55-1.4-8.13-4.07-10.63c-4.31-4.03-10.42-3.79-10.94-3.77l-22.57,0.11l0.15,29.91
	l1.74-0.01l-0.14-28.17l20.85-0.1l0.05,0c0.06,0,5.81-0.32,9.68,3.3c2.32,2.17,3.5,5.33,3.52,9.4l0,0.07c0,0.05,0.28,3.71-1.1,7.31
	c0.59-2.48,0.46-4.59,0.44-4.9c-0.02-3.81-1.17-6.81-3.41-8.9c-3.61-3.37-8.73-3.18-9.17-3.15l-18.91,0.09l0.12,25.06l1.46-0.01
	l-0.12-23.6l17.47-0.09l0.04,0c0.05,0,4.87-0.26,8.11,2.76c1.94,1.82,2.93,4.46,2.95,7.87l0,0.06c0,0.06,0.44,5.88-2.93,9.38
	c-0.87,0.9-1.94,1.57-3.18,2.02c-1.44,0.38-3.06,0.54-4.85,0.45l-0.08,1.74c0.39,0.02,0.77,0.03,1.14,0.02
	c4.12-0.02,7.41-1.27,9.77-3.73C55.71,37.43,55.27,30.21,55.22,29.56z"/>
<path class="st1" d="M26.56,50.67c0.05,4.55,1.43,8.12,4.11,10.61c4.32,4.01,10.44,3.76,10.96,3.73l22.57-0.19L63.94,34.9
	l-1.74,0.01l0.24,28.17L41.6,63.27l-0.05,0c-0.06,0-5.81,0.34-9.69-3.26c-2.32-2.16-3.52-5.32-3.56-9.39l0-0.07
	c0-0.05-0.29-3.71,1.08-7.32c-0.58,2.48-0.45,4.59-0.42,4.9c0.04,3.81,1.2,6.8,3.44,8.89c3.62,3.36,8.74,3.15,9.18,3.12l18.91-0.16
	l-0.21-25.06l-1.46,0.01l0.2,23.6l-17.47,0.15l-0.04,0c-0.05,0-4.87,0.28-8.12-2.73c-1.95-1.81-2.95-4.45-2.98-7.86l0-0.06
	c-0.01-0.06-0.46-5.88,2.9-9.39c0.87-0.91,1.93-1.58,3.17-2.03c1.44-0.39,3.05-0.55,4.84-0.47l0.08-1.74
	c-0.39-0.02-0.77-0.02-1.14-0.02c-4.12,0.04-7.4,1.3-9.76,3.76C26.05,42.79,26.51,50.02,26.56,50.67z"/>
<g>
	<path class="st0" d="M110.21,47.02c0,8.73-3.04,8.73-5.72,8.73c-2.08,0-3.32-0.41-3.87-0.65l-2.91-1.29L95.9,63.83l1.98,0.72
		c1.9,0.69,4.74,1.15,7.07,1.15c7.36,0,16.14-3.15,16.14-18.15V14.9h-10.88V47.02z"/>
	<polygon class="st0" points="141.88,43.83 159.34,43.83 159.34,34.02 141.88,34.02 141.88,24.71 160.41,24.71 160.41,14.9 
		131,14.9 131,64.96 161.41,64.96 161.41,55.15 141.88,55.15 	"/>
	<path class="st0" d="M179.54,47.02c0,8.73-3.04,8.73-5.72,8.73c-2.08,0-3.32-0.41-3.87-0.65l-2.91-1.29l-1.81,10.02l1.98,0.72
		c1.9,0.69,4.74,1.15,7.07,1.15c7.36,0,16.14-3.15,16.14-18.15V14.9h-10.88V47.02z"/>
	<path class="st0" d="M223.61,14.9h-10.53L196,64.96h11.39L212,50.79h12.37l4.81,14.17h11.5L223.61,14.9z M214.88,41.24l3.29-9.72
		c0.01,0.02,0.01,0.04,0.02,0.05l3.29,9.67H214.88z"/>
</g>
<g>
	<path class="st2" d="M238.98,17.26c1.05,1.08,1.88,1.84,2.95,1.84c0.88,0,1.76-0.57,1.76-1.83c0-0.6-0.21-1.18-0.59-1.63
		l-0.12-0.14l-0.97,0.44l0.21,0.25c0.18,0.21,0.39,0.55,0.39,0.94c0,0.52-0.26,0.78-0.77,0.78c-0.67-0.01-1.3-0.55-2.55-1.86
		l-0.6-0.64h-0.79v3.82h1.08V17.26z"/>
	<path class="st2" d="M243.13,20.69l-1,0.36l0.19,0.27c0.14,0.19,0.3,0.54,0.3,0.89c0,0.43-0.18,0.66-0.53,0.66
		c-0.46,0-0.63-0.54-0.63-0.91v-0.64h-1.03v0.64c0,0.18-0.04,1.09-0.79,1.09c-0.06-0.01-0.32-0.01-0.51-0.19
		c-0.16-0.16-0.25-0.41-0.25-0.73c0-0.45,0.19-0.86,0.29-1.02l0.17-0.26l-1.01-0.36l-0.11,0.16c-0.19,0.27-0.4,0.82-0.4,1.49
		c0,1.47,0.94,2.14,1.81,2.14c0.59,0,1.1-0.31,1.38-0.81c0.29,0.4,0.71,0.62,1.2,0.62c0.74,0,1.49-0.54,1.49-1.75
		c0-0.62-0.23-1.2-0.45-1.51L243.13,20.69z"/>
	<path class="st2" d="M240.73,25.63c-1.8,0.02-2.92,0.77-2.92,1.97c0,1.31,1.09,2.06,2.99,2.06c1.8,0,2.88-0.74,2.88-1.97
		C243.69,26.44,242.53,25.63,240.73,25.63z M240.73,26.84c1.16,0,1.91,0.32,1.91,0.81c0,0.7-1.17,0.81-1.86,0.81
		c-0.58,0-1.92-0.08-1.92-0.81C238.86,27.15,239.59,26.84,240.73,26.84z"/>
	<path class="st2" d="M242.8,31.72c-0.61-0.62-1.5-0.95-2.52-0.95c-1.47,0-2.46,0.84-2.46,2.08c0,1.29,1.07,1.99,2.08,1.99
		c1.14,0,1.94-0.75,1.94-1.82c0-0.28-0.06-0.55-0.17-0.79c0.48,0.28,0.8,0.75,0.9,1.36c0.04,0.18,0.04,0.33,0.04,0.48v0.25h1.06
		l0.01-0.23c0.01-0.14,0-0.31-0.04-0.56C243.55,32.81,243.26,32.18,242.8,31.72z M239.85,33.62c-0.61,0-1.01-0.3-1.01-0.76
		c0-0.81,0.96-0.89,1.25-0.89c0.08,0,0.15,0.02,0.19,0.04c0.3,0.15,0.5,0.47,0.5,0.79C240.8,33.31,240.44,33.62,239.85,33.62z"/>
</g>
</svg>
